<svg width="319" height="473" viewBox="0 0 319 473" fill="none" xmlns="http://www.w3.org/2000/svg">
<g opacity="0.78">
<path d="M36.6506 1.23953H7.79713C4.17547 1.23953 1.23953 4.47721 1.23953 8.47108V115.498C1.23953 119.492 4.17547 122.73 7.79713 122.73H36.6506C40.2722 122.73 43.2082 119.492 43.2082 115.498V8.47108C43.2082 4.47721 40.2722 1.23953 36.6506 1.23953Z" fill="#F5D020" fill-opacity="0.22"/>
<path d="M36.6506 1.23953H7.79713C4.17547 1.23953 1.23953 4.47721 1.23953 8.47108V115.498C1.23953 119.492 4.17547 122.73 7.79713 122.73H36.6506C40.2722 122.73 43.2082 119.492 43.2082 115.498V8.47108C43.2082 4.47721 40.2722 1.23953 36.6506 1.23953Z" stroke="#F5D020" stroke-opacity="0.88" stroke-width="2.47908"/>
</g>
<g opacity="0.78">
<path d="M310.758 1.23953H281.905C278.283 1.23953 275.347 4.47721 275.347 8.47108V115.498C275.347 119.492 278.283 122.73 281.905 122.73H310.758C314.38 122.73 317.316 119.492 317.316 115.498V8.47108C317.316 4.47721 314.38 1.23953 310.758 1.23953Z" fill="#F5D020" fill-opacity="0.22"/>
<path d="M310.758 1.23953H281.905C278.283 1.23953 275.347 4.47721 275.347 8.47108V115.498C275.347 119.492 278.283 122.73 281.905 122.73H310.758C314.38 122.73 317.316 119.492 317.316 115.498V8.47108C317.316 4.47721 314.38 1.23953 310.758 1.23953Z" stroke="#F5D020" stroke-opacity="0.88" stroke-width="2.47908"/>
</g>
<g opacity="0.78">
<path d="M142.884 85.1255H73.3731C69.7515 85.1255 66.8155 88.3631 66.8155 92.357V205.169C66.8155 209.163 69.7515 212.401 73.3731 212.401H142.884C146.505 212.401 149.441 209.163 149.441 205.169V92.357C149.441 88.3631 146.505 85.1255 142.884 85.1255Z" fill="#36D97A" fill-opacity="0.22"/>
<path d="M142.884 85.1255H73.3731C69.7515 85.1255 66.8155 88.3631 66.8155 92.357V205.169C66.8155 209.163 69.7515 212.401 73.3731 212.401H142.884C146.505 212.401 149.441 209.163 149.441 205.169V92.357C149.441 88.3631 146.505 85.1255 142.884 85.1255Z" stroke="#36D97A" stroke-opacity="0.88" stroke-width="2.47908"/>
</g>
<g opacity="0.78">
<path d="M243.871 85.1255H174.36C170.739 85.1255 167.803 88.3631 167.803 92.357V205.169C167.803 209.163 170.739 212.401 174.36 212.401H243.871C247.492 212.401 250.428 209.163 250.428 205.169V92.357C250.428 88.3631 247.492 85.1255 243.871 85.1255Z" fill="#36D97A" fill-opacity="0.22"/>
<path d="M243.871 85.1255H174.36C170.739 85.1255 167.803 88.3631 167.803 92.357V205.169C167.803 209.163 170.739 212.401 174.36 212.401H243.871C247.492 212.401 250.428 209.163 250.428 205.169V92.357C250.428 88.3631 247.492 85.1255 243.871 85.1255Z" stroke="#36D97A" stroke-opacity="0.88" stroke-width="2.47908"/>
</g>
<g opacity="0.78">
<path d="M103.538 344.015H58.9464C55.3248 344.015 52.3888 347.252 52.3888 351.246V464.058C52.3888 468.052 55.3248 471.29 58.9464 471.29H103.538C107.16 471.29 110.096 468.052 110.096 464.058V351.246C110.096 347.252 107.16 344.015 103.538 344.015Z" fill="#FF8C33" fill-opacity="0.22"/>
<path d="M103.538 344.015H58.9464C55.3248 344.015 52.3888 347.252 52.3888 351.246V464.058C52.3888 468.052 55.3248 471.29 58.9464 471.29H103.538C107.16 471.29 110.096 468.052 110.096 464.058V351.246C110.096 347.252 107.16 344.015 103.538 344.015Z" stroke="#FF8C33" stroke-opacity="0.88" stroke-width="2.47908"/>
</g>
<g opacity="0.78">
<path d="M259.609 344.015H215.017C211.396 344.015 208.46 347.252 208.46 351.246V464.058C208.46 468.052 211.396 471.29 215.017 471.29H259.609C263.231 471.29 266.167 468.052 266.167 464.058V351.246C266.167 347.252 263.231 344.015 259.609 344.015Z" fill="#FF8C33" fill-opacity="0.22"/>
<path d="M259.609 344.015H215.017C211.396 344.015 208.46 347.252 208.46 351.246V464.058C208.46 468.052 211.396 471.29 215.017 471.29H259.609C263.231 471.29 266.167 468.052 266.167 464.058V351.246C266.167 347.252 263.231 344.015 259.609 344.015Z" stroke="#FF8C33" stroke-opacity="0.88" stroke-width="2.47908"/>
</g>
</svg>
